<?xml version="1.0" standalone="no"?>
<!DOCTYPE svg PUBLIC "-//W3C//DTD SVG 20010904//EN"
 "http://www.w3.org/TR/2001/REC-SVG-20010904/DTD/svg10.dtd">
<svg version="1.0" xmlns="http://www.w3.org/2000/svg"
 width="1280.000000pt" height="1280.000000pt" viewBox="0 0 1280.000000 1280.000000"
 preserveAspectRatio="xMidYMid meet">
<g transform="translate(0.000000,1280.000000) scale(0.100000,-0.100000)"
fill="#000000" stroke="none">
<path d="M6200 12797 c-3 -3 -81 -10 -175 -16 -633 -42 -1232 -165 -1787 -367
-1675 -608 -3017 -1872 -3712 -3497 -325 -760 -493 -1544 -523 -2452 -6 -154
0 -265 33 -640 91 -1043 448 -2061 1029 -2940 238 -361 468 -646 770 -954 516
-526 1075 -933 1730 -1256 274 -135 448 -209 685 -292 544 -191 1063 -304
1605 -348 105 -8 240 -20 301 -25 139 -13 364 -13 491 -1 54 6 168 15 253 21
296 22 588 65 898 135 1874 418 3470 1670 4322 3390 269 543 447 1067 555
1640 57 304 75 449 116 975 25 322 -21 923 -106 1390 -319 1738 -1365 3287
-2864 4239 -196 125 -348 209 -606 336 -765 377 -1515 576 -2435 646 -164 12
-572 24 -580 16z m770 -591 c1006 -113 1857 -416 2660 -949 328 -218 578 -424
881 -726 239 -239 386 -407 557 -636 584 -781 970 -1710 1106 -2665 66 -461
74 -1017 20 -1490 -102 -908 -416 -1774 -921 -2545 -364 -554 -831 -1051
-1375 -1461 -769 -580 -1723 -975 -2673 -1109 -349 -49 -845 -68 -1180 -46
-785 51 -1499 239 -2191 576 -628 305 -1132 669 -1624 1171 -874 893 -1439
2045 -1609 3284 -40 291 -46 388 -46 790 0 412 7 520 56 855 138 950 520 1867
1099 2640 170 227 308 384 539 616 238 238 406 385 636 558 863 646 1922 1053
2970 1140 72 6 150 13 175 15 121 10 783 -3 920 -18z"/>
<path d="M7405 10020 c-389 -59 -749 -211 -1057 -447 -459 -351 -768 -861
-868 -1433 -28 -158 -38 -467 -21 -631 45 -437 210 -842 484 -1192 61 -77 75
-102 68 -115 -11 -19 -215 -222 -224 -222 -3 0 -27 18 -52 40 -51 44 -81 55
-122 46 -19 -5 -401 -380 -1210 -1189 l-1183 -1182 0 -50 0 -49 188 -188 188
-188 49 0 50 0 1182 1183 c809 809 1184 1191 1189 1210 9 41 -2 71 -46 122
-31 35 -38 50 -31 63 11 20 215 222 224 222 4 0 55 -38 114 -85 300 -234 643
-385 1038 -457 144 -26 458 -35 619 -19 1010 105 1837 865 2021 1858 43 233
49 535 16 758 -111 745 -563 1379 -1223 1715 -244 125 -472 196 -746 234 -159
22 -488 20 -647 -4z m623 -574 c608 -110 1097 -507 1321 -1072 205 -518 142
-1113 -168 -1576 -451 -674 -1300 -950 -2041 -664 -593 229 -999 735 -1101
1371 -20 126 -16 398 9 536 82 457 352 873 732 1129 252 169 495 256 820 294
70 8 347 -4 428 -18z"/>
</g>
</svg>
